<svg xmlns="http://www.w3.org/2000/svg" xmlns:xlink="http://www.w3.org/1999/xlink" width="500" zoomAndPan="magnify" viewBox="0 0 375 374.999991" height="500" preserveAspectRatio="xMidYMid meet" version="1.0"><defs><clipPath id="64e84ed015"><path d="M 99 48.992188 L 276 48.992188 L 276 325.742188 L 99 325.742188 Z M 99 48.992188 " clip-rule="nonzero"/></clipPath></defs><g clip-path="url(#64e84ed015)"><path fill="#7c3aed" d="M 189.953125 48.972656 C 189.152344 48.953125 188.324219 48.941406 187.5 48.941406 C 186.679688 48.941406 185.859375 48.953125 185.039062 48.972656 C 120.019531 50.625 79.84375 120.859375 110.074219 178.460938 L 133.3125 222.765625 L 187.5 326.058594 L 206.558594 289.714844 C 198.769531 275.238281 190.957031 260.761719 183.15625 246.285156 C 171.234375 224.167969 159.316406 202.050781 147.398438 179.949219 C 141.34375 168.722656 135.574219 157.269531 133.992188 144.429688 C 130.183594 113.453125 156.59375 85.875 187.285156 85.757812 C 217.378906 85.640625 241.800781 109.984375 241.800781 140.042969 C 241.800781 170.03125 217.480469 194.335938 187.5 194.335938 C 186.507812 194.335938 185.53125 194.308594 184.546875 194.261719 L 220.6875 262.816406 L 241.703125 222.765625 L 264.921875 178.460938 C 295.152344 120.859375 254.976562 50.625 189.953125 48.972656 " fill-opacity="1" fill-rule="nonzero"/></g></svg>