<svg xmlns="http://www.w3.org/2000/svg" xmlns:xlink="http://www.w3.org/1999/xlink" width="500" zoomAndPan="magnify" viewBox="0 0 375 374.999991" height="500" preserveAspectRatio="xMidYMid meet" version="1.0"><defs><g/><clipPath id="06bd596c01"><path d="M 32 134.304688 L 100 134.304688 L 100 240.78125 L 32 240.78125 Z M 32 134.304688 " clip-rule="nonzero"/></clipPath></defs><g fill="#1f2937" fill-opacity="1"><g transform="translate(129.525934, 174.904736)"><g><path d="M 28.734375 -18 L 20.8125 -18 C 20.75 -18.65625 20.597656 -19.25 20.359375 -19.78125 C 20.117188 -20.3125 19.789062 -20.769531 19.375 -21.15625 C 18.957031 -21.550781 18.453125 -21.851562 17.859375 -22.0625 C 17.273438 -22.28125 16.609375 -22.390625 15.859375 -22.390625 C 14.546875 -22.390625 13.4375 -22.066406 12.53125 -21.421875 C 11.625 -20.785156 10.9375 -19.875 10.46875 -18.6875 C 10.007812 -17.5 9.78125 -16.066406 9.78125 -14.390625 C 9.78125 -12.628906 10.015625 -11.15625 10.484375 -9.96875 C 10.960938 -8.789062 11.648438 -7.898438 12.546875 -7.296875 C 13.453125 -6.703125 14.535156 -6.40625 15.796875 -6.40625 C 16.523438 -6.40625 17.175781 -6.492188 17.75 -6.671875 C 18.320312 -6.859375 18.816406 -7.125 19.234375 -7.46875 C 19.648438 -7.820312 19.992188 -8.242188 20.265625 -8.734375 C 20.535156 -9.234375 20.71875 -9.789062 20.8125 -10.40625 L 28.734375 -10.34375 C 28.640625 -9.125 28.296875 -7.882812 27.703125 -6.625 C 27.117188 -5.363281 26.285156 -4.203125 25.203125 -3.140625 C 24.117188 -2.078125 22.78125 -1.222656 21.1875 -0.578125 C 19.59375 0.0664062 17.742188 0.390625 15.640625 0.390625 C 12.992188 0.390625 10.625 -0.175781 8.53125 -1.3125 C 6.4375 -2.445312 4.78125 -4.113281 3.5625 -6.3125 C 2.351562 -8.519531 1.75 -11.210938 1.75 -14.390625 C 1.75 -17.597656 2.363281 -20.300781 3.59375 -22.5 C 4.832031 -24.695312 6.5 -26.359375 8.59375 -27.484375 C 10.695312 -28.617188 13.046875 -29.1875 15.640625 -29.1875 C 17.453125 -29.1875 19.125 -28.9375 20.65625 -28.4375 C 22.1875 -27.945312 23.523438 -27.222656 24.671875 -26.265625 C 25.828125 -25.316406 26.753906 -24.148438 27.453125 -22.765625 C 28.160156 -21.378906 28.585938 -19.789062 28.734375 -18 Z M 28.734375 -18 "/></g></g></g><g fill="#1f2937" fill-opacity="1"><g transform="translate(163.915562, 174.904736)"><g><path d="M 1.859375 0 L 1.859375 -28.796875 L 9.671875 -28.796875 L 9.671875 -17.546875 L 20.015625 -17.546875 L 20.015625 -28.796875 L 27.84375 -28.796875 L 27.84375 0 L 20.015625 0 L 20.015625 -11.25 L 9.671875 -11.25 L 9.671875 0 Z M 1.859375 0 "/></g></g></g><g fill="#1f2937" fill-opacity="1"><g transform="translate(197.573981, 174.904736)"><g><path d="M 18.890625 -28.796875 L 26.71875 -28.796875 L 26.71875 -10.34375 C 26.71875 -8.15625 26.191406 -6.257812 25.140625 -4.65625 C 24.097656 -3.0625 22.644531 -1.828125 20.78125 -0.953125 C 18.914062 -0.0859375 16.75 0.34375 14.28125 0.34375 C 11.800781 0.34375 9.628906 -0.0859375 7.765625 -0.953125 C 5.898438 -1.828125 4.445312 -3.0625 3.40625 -4.65625 C 2.375 -6.257812 1.859375 -8.15625 1.859375 -10.34375 L 1.859375 -28.796875 L 9.671875 -28.796875 L 9.671875 -11.015625 C 9.671875 -10.128906 9.867188 -9.335938 10.265625 -8.640625 C 10.660156 -7.941406 11.207031 -7.394531 11.90625 -7 C 12.601562 -6.601562 13.394531 -6.40625 14.28125 -6.40625 C 15.1875 -6.40625 15.984375 -6.601562 16.671875 -7 C 17.367188 -7.394531 17.910156 -7.941406 18.296875 -8.640625 C 18.691406 -9.335938 18.890625 -10.128906 18.890625 -11.015625 Z M 18.890625 -28.796875 "/></g></g></g><g fill="#1f2937" fill-opacity="1"><g transform="translate(230.107455, 174.904736)"><g><path d="M 1.859375 0 L 1.859375 -28.796875 L 14.28125 -28.796875 C 16.414062 -28.796875 18.285156 -28.40625 19.890625 -27.625 C 21.492188 -26.851562 22.738281 -25.734375 23.625 -24.265625 C 24.519531 -22.804688 24.96875 -21.054688 24.96875 -19.015625 C 24.96875 -16.953125 24.507812 -15.210938 23.59375 -13.796875 C 22.6875 -12.378906 21.410156 -11.304688 19.765625 -10.578125 C 18.117188 -9.859375 16.195312 -9.5 14 -9.5 L 6.578125 -9.5 L 6.578125 -15.578125 L 12.421875 -15.578125 C 13.347656 -15.578125 14.132812 -15.691406 14.78125 -15.921875 C 15.4375 -16.148438 15.9375 -16.515625 16.28125 -17.015625 C 16.632812 -17.523438 16.8125 -18.191406 16.8125 -19.015625 C 16.8125 -19.835938 16.632812 -20.507812 16.28125 -21.03125 C 15.9375 -21.550781 15.4375 -21.929688 14.78125 -22.171875 C 14.132812 -22.421875 13.347656 -22.546875 12.421875 -22.546875 L 9.671875 -22.546875 L 9.671875 0 Z M 18.734375 -13.21875 L 25.921875 0 L 17.4375 0 L 10.40625 -13.21875 Z M 18.734375 -13.21875 "/></g></g></g><g fill="#1f2937" fill-opacity="1"><g transform="translate(260.503556, 174.904736)"><g><path d="M 28.734375 -18 L 20.8125 -18 C 20.75 -18.65625 20.597656 -19.25 20.359375 -19.78125 C 20.117188 -20.3125 19.789062 -20.769531 19.375 -21.15625 C 18.957031 -21.550781 18.453125 -21.851562 17.859375 -22.0625 C 17.273438 -22.28125 16.609375 -22.390625 15.859375 -22.390625 C 14.546875 -22.390625 13.4375 -22.066406 12.53125 -21.421875 C 11.625 -20.785156 10.9375 -19.875 10.46875 -18.6875 C 10.007812 -17.5 9.78125 -16.066406 9.78125 -14.390625 C 9.78125 -12.628906 10.015625 -11.15625 10.484375 -9.96875 C 10.960938 -8.789062 11.648438 -7.898438 12.546875 -7.296875 C 13.453125 -6.703125 14.535156 -6.40625 15.796875 -6.40625 C 16.523438 -6.40625 17.175781 -6.492188 17.75 -6.671875 C 18.320312 -6.859375 18.816406 -7.125 19.234375 -7.46875 C 19.648438 -7.820312 19.992188 -8.242188 20.265625 -8.734375 C 20.535156 -9.234375 20.71875 -9.789062 20.8125 -10.40625 L 28.734375 -10.34375 C 28.640625 -9.125 28.296875 -7.882812 27.703125 -6.625 C 27.117188 -5.363281 26.285156 -4.203125 25.203125 -3.140625 C 24.117188 -2.078125 22.78125 -1.222656 21.1875 -0.578125 C 19.59375 0.0664062 17.742188 0.390625 15.640625 0.390625 C 12.992188 0.390625 10.625 -0.175781 8.53125 -1.3125 C 6.4375 -2.445312 4.78125 -4.113281 3.5625 -6.3125 C 2.351562 -8.519531 1.75 -11.210938 1.75 -14.390625 C 1.75 -17.597656 2.363281 -20.300781 3.59375 -22.5 C 4.832031 -24.695312 6.5 -26.359375 8.59375 -27.484375 C 10.695312 -28.617188 13.046875 -29.1875 15.640625 -29.1875 C 17.453125 -29.1875 19.125 -28.9375 20.65625 -28.4375 C 22.1875 -27.945312 23.523438 -27.222656 24.671875 -26.265625 C 25.828125 -25.316406 26.753906 -24.148438 27.453125 -22.765625 C 28.160156 -21.378906 28.585938 -19.789062 28.734375 -18 Z M 28.734375 -18 "/></g></g></g><g fill="#1f2937" fill-opacity="1"><g transform="translate(294.893187, 174.904736)"><g><path d="M 1.859375 0 L 1.859375 -28.796875 L 9.671875 -28.796875 L 9.671875 -17.546875 L 20.015625 -17.546875 L 20.015625 -28.796875 L 27.84375 -28.796875 L 27.84375 0 L 20.015625 0 L 20.015625 -11.25 L 9.671875 -11.25 L 9.671875 0 Z M 1.859375 0 "/></g></g></g><g fill="#1f2937" fill-opacity="1"><g transform="translate(328.557171, 174.904736)"><g/></g></g><g fill="#1f2937" fill-opacity="1"><g transform="translate(129.525934, 229.654732)"><g><path d="M 1.859375 0 L 1.859375 -28.796875 L 22.109375 -28.796875 L 22.109375 -22.5 L 9.671875 -22.5 L 9.671875 -17.546875 L 20.859375 -17.546875 L 20.859375 -11.25 L 9.671875 -11.25 L 9.671875 0 Z M 1.859375 0 "/></g></g></g><g fill="#1f2937" fill-opacity="1"><g transform="translate(156.603452, 229.654732)"><g><path d="M 9.671875 -28.796875 L 9.671875 0 L 1.859375 0 L 1.859375 -28.796875 Z M 9.671875 -28.796875 "/></g></g></g><g fill="#1f2937" fill-opacity="1"><g transform="translate(172.09409, 229.654732)"><g><path d="M 26.765625 -28.796875 L 26.765625 0 L 20.25 0 L 9.84375 -15.125 L 9.671875 -15.125 L 9.671875 0 L 1.859375 0 L 1.859375 -28.796875 L 8.5 -28.796875 L 18.734375 -13.71875 L 18.953125 -13.71875 L 18.953125 -28.796875 Z M 26.765625 -28.796875 "/></g></g></g><g fill="#1f2937" fill-opacity="1"><g transform="translate(204.683812, 229.654732)"><g><path d="M 12.9375 0 L 1.859375 0 L 1.859375 -28.796875 L 12.828125 -28.796875 C 15.785156 -28.796875 18.34375 -28.21875 20.5 -27.0625 C 22.664062 -25.914062 24.335938 -24.265625 25.515625 -22.109375 C 26.691406 -19.960938 27.28125 -17.390625 27.28125 -14.390625 C 27.28125 -11.390625 26.691406 -8.8125 25.515625 -6.65625 C 24.347656 -4.507812 22.691406 -2.863281 20.546875 -1.71875 C 18.398438 -0.570312 15.863281 0 12.9375 0 Z M 9.671875 -6.640625 L 12.65625 -6.640625 C 14.082031 -6.640625 15.296875 -6.867188 16.296875 -7.328125 C 17.304688 -7.785156 18.078125 -8.578125 18.609375 -9.703125 C 19.140625 -10.828125 19.40625 -12.390625 19.40625 -14.390625 C 19.40625 -16.398438 19.132812 -17.96875 18.59375 -19.09375 C 18.050781 -20.21875 17.257812 -21.007812 16.21875 -21.46875 C 15.1875 -21.925781 13.921875 -22.15625 12.421875 -22.15625 L 9.671875 -22.15625 Z M 9.671875 -6.640625 "/></g></g></g><g fill="#1f2937" fill-opacity="1"><g transform="translate(237.667273, 229.654732)"><g><path d="M 1.859375 0 L 1.859375 -28.796875 L 22.609375 -28.796875 L 22.609375 -22.5 L 9.671875 -22.5 L 9.671875 -17.546875 L 21.546875 -17.546875 L 21.546875 -11.25 L 9.671875 -11.25 L 9.671875 -6.296875 L 22.546875 -6.296875 L 22.546875 0 Z M 1.859375 0 "/></g></g></g><g fill="#1f2937" fill-opacity="1"><g transform="translate(266.26347, 229.654732)"><g><path d="M 1.859375 0 L 1.859375 -28.796875 L 14.28125 -28.796875 C 16.414062 -28.796875 18.285156 -28.40625 19.890625 -27.625 C 21.492188 -26.851562 22.738281 -25.734375 23.625 -24.265625 C 24.519531 -22.804688 24.96875 -21.054688 24.96875 -19.015625 C 24.96875 -16.953125 24.507812 -15.210938 23.59375 -13.796875 C 22.6875 -12.378906 21.410156 -11.304688 19.765625 -10.578125 C 18.117188 -9.859375 16.195312 -9.5 14 -9.5 L 6.578125 -9.5 L 6.578125 -15.578125 L 12.421875 -15.578125 C 13.347656 -15.578125 14.132812 -15.691406 14.78125 -15.921875 C 15.4375 -16.148438 15.9375 -16.515625 16.28125 -17.015625 C 16.632812 -17.523438 16.8125 -18.191406 16.8125 -19.015625 C 16.8125 -19.835938 16.632812 -20.507812 16.28125 -21.03125 C 15.9375 -21.550781 15.4375 -21.929688 14.78125 -22.171875 C 14.132812 -22.421875 13.347656 -22.546875 12.421875 -22.546875 L 9.671875 -22.546875 L 9.671875 0 Z M 18.734375 -13.21875 L 25.921875 0 L 17.4375 0 L 10.40625 -13.21875 Z M 18.734375 -13.21875 "/></g></g></g><g fill="#1f2937" fill-opacity="1"><g transform="translate(296.659571, 229.654732)"><g/></g></g><g fill="#1f2937" fill-opacity="1"><g transform="translate(308.494157, 229.654732)"><g><path d="M 1.859375 0 L 1.859375 -28.796875 L 14.28125 -28.796875 C 16.414062 -28.796875 18.285156 -28.375 19.890625 -27.53125 C 21.492188 -26.6875 22.738281 -25.5 23.625 -23.96875 C 24.519531 -22.445312 24.96875 -20.660156 24.96875 -18.609375 C 24.96875 -16.546875 24.507812 -14.757812 23.59375 -13.25 C 22.6875 -11.75 21.410156 -10.585938 19.765625 -9.765625 C 18.117188 -8.953125 16.195312 -8.546875 14 -8.546875 L 6.578125 -8.546875 L 6.578125 -14.625 L 12.421875 -14.625 C 13.347656 -14.625 14.132812 -14.785156 14.78125 -15.109375 C 15.4375 -15.429688 15.9375 -15.890625 16.28125 -16.484375 C 16.632812 -17.085938 16.8125 -17.796875 16.8125 -18.609375 C 16.8125 -19.441406 16.632812 -20.148438 16.28125 -20.734375 C 15.9375 -21.316406 15.4375 -21.765625 14.78125 -22.078125 C 14.132812 -22.390625 13.347656 -22.546875 12.421875 -22.546875 L 9.671875 -22.546875 L 9.671875 0 Z M 1.859375 0 "/></g></g></g><g fill="#1f2937" fill-opacity="1"><g transform="translate(338.440265, 229.654732)"><g><path d="M 1.859375 0 L 1.859375 -28.796875 L 9.671875 -28.796875 L 9.671875 -17.546875 L 20.015625 -17.546875 L 20.015625 -28.796875 L 27.84375 -28.796875 L 27.84375 0 L 20.015625 0 L 20.015625 -11.25 L 9.671875 -11.25 L 9.671875 0 Z M 1.859375 0 "/></g></g></g><g clip-path="url(#06bd596c01)"><path fill="#7c3aed" d="M 66.859375 134.296875 C 66.550781 134.289062 66.234375 134.285156 65.917969 134.285156 C 65.601562 134.285156 65.285156 134.289062 64.972656 134.296875 C 40.003906 134.933594 24.574219 161.90625 36.179688 184.027344 L 45.105469 201.042969 L 65.917969 240.710938 L 73.238281 226.753906 C 70.246094 221.195312 67.246094 215.636719 64.25 210.074219 C 59.671875 201.582031 55.09375 193.085938 50.515625 184.601562 C 48.191406 180.289062 45.976562 175.890625 45.367188 170.957031 C 43.90625 159.0625 54.046875 148.46875 65.835938 148.425781 C 77.394531 148.378906 86.773438 157.730469 86.773438 169.273438 C 86.773438 180.789062 77.429688 190.125 65.917969 190.125 C 65.535156 190.125 65.160156 190.113281 64.785156 190.09375 L 78.664062 216.421875 L 86.734375 201.042969 L 95.652344 184.027344 C 107.261719 161.90625 91.832031 134.933594 66.859375 134.296875 " fill-opacity="1" fill-rule="nonzero"/></g></svg>